<mxfile>
    <diagram id="ZMR-AlvkD7MDftKSi2A_" name="Flujo registro">
        <mxGraphModel dx="1174" dy="790" grid="1" gridSize="10" guides="1" tooltips="1" connect="1" arrows="1" fold="1" page="1" pageScale="1" pageWidth="827" pageHeight="1169" math="0" shadow="0">
            <root>
                <mxCell id="0"/>
                <mxCell id="1" parent="0"/>
                <mxCell id="2" value="Más información" style="rounded=0;whiteSpace=wrap;html=1;" vertex="1" parent="1">
                    <mxGeometry x="570" y="10" width="120" height="60" as="geometry"/>
                </mxCell>
                <mxCell id="3" value="Registro cuenta Personal" style="rounded=0;whiteSpace=wrap;html=1;" vertex="1" parent="1">
                    <mxGeometry x="180" y="210" width="120" height="60" as="geometry"/>
                </mxCell>
                <mxCell id="4" value="Iniciar Sesión" style="rounded=0;whiteSpace=wrap;html=1;" vertex="1" parent="1">
                    <mxGeometry x="515" y="270" width="120" height="60" as="geometry"/>
                </mxCell>
                <mxCell id="6" value="Registro cuenta Empresa" style="rounded=0;whiteSpace=wrap;html=1;" vertex="1" parent="1">
                    <mxGeometry x="60" y="410" width="120" height="60" as="geometry"/>
                </mxCell>
                <mxCell id="10" value="Inicio" style="rounded=0;whiteSpace=wrap;html=1;" vertex="1" parent="1">
                    <mxGeometry x="370" y="10" width="120" height="60" as="geometry"/>
                </mxCell>
                <mxCell id="11" value="" style="endArrow=classic;html=1;entryX=0.5;entryY=0;entryDx=0;entryDy=0;" edge="1" parent="1" target="4">
                    <mxGeometry relative="1" as="geometry">
                        <mxPoint x="420" y="170" as="sourcePoint"/>
                        <mxPoint x="550" y="170" as="targetPoint"/>
                        <Array as="points">
                            <mxPoint x="575" y="170"/>
                        </Array>
                    </mxGeometry>
                </mxCell>
                <mxCell id="12" value="Sí" style="edgeLabel;resizable=0;html=1;align=center;verticalAlign=middle;" connectable="0" vertex="1" parent="11">
                    <mxGeometry relative="1" as="geometry">
                        <mxPoint x="-43" as="offset"/>
                    </mxGeometry>
                </mxCell>
                <mxCell id="13" value="" style="endArrow=classic;html=1;" edge="1" parent="1">
                    <mxGeometry relative="1" as="geometry">
                        <mxPoint x="420" y="170" as="sourcePoint"/>
                        <mxPoint x="245" y="210" as="targetPoint"/>
                        <Array as="points">
                            <mxPoint x="245" y="170"/>
                        </Array>
                    </mxGeometry>
                </mxCell>
                <mxCell id="14" value="No" style="edgeLabel;resizable=0;html=1;align=center;verticalAlign=middle;" connectable="0" vertex="1" parent="13">
                    <mxGeometry relative="1" as="geometry">
                        <mxPoint x="38" as="offset"/>
                    </mxGeometry>
                </mxCell>
                <mxCell id="15" value="¿Tiene cuenta?" style="ellipse;whiteSpace=wrap;html=1;" vertex="1" parent="1">
                    <mxGeometry x="370" y="100" width="120" height="50" as="geometry"/>
                </mxCell>
                <mxCell id="16" value="" style="endArrow=none;html=1;entryX=0.5;entryY=1;entryDx=0;entryDy=0;" edge="1" parent="1" target="15">
                    <mxGeometry width="50" height="50" relative="1" as="geometry">
                        <mxPoint x="430" y="170" as="sourcePoint"/>
                        <mxPoint x="440" y="170" as="targetPoint"/>
                    </mxGeometry>
                </mxCell>
                <mxCell id="17" value="" style="endArrow=none;html=1;entryX=0.5;entryY=1;entryDx=0;entryDy=0;exitX=0.5;exitY=0;exitDx=0;exitDy=0;" edge="1" parent="1" source="15" target="10">
                    <mxGeometry width="50" height="50" relative="1" as="geometry">
                        <mxPoint x="390" y="220" as="sourcePoint"/>
                        <mxPoint x="440" y="170" as="targetPoint"/>
                    </mxGeometry>
                </mxCell>
                <mxCell id="20" value="¿Es empresa?" style="ellipse;whiteSpace=wrap;html=1;" vertex="1" parent="1">
                    <mxGeometry x="180" y="310" width="120" height="50" as="geometry"/>
                </mxCell>
                <mxCell id="26" value="" style="endArrow=classic;html=1;" edge="1" parent="1">
                    <mxGeometry relative="1" as="geometry">
                        <mxPoint x="300" y="334.5" as="sourcePoint"/>
                        <mxPoint x="350" y="410" as="targetPoint"/>
                        <Array as="points">
                            <mxPoint x="350" y="335"/>
                        </Array>
                    </mxGeometry>
                </mxCell>
                <mxCell id="27" value="No" style="edgeLabel;resizable=0;html=1;align=center;verticalAlign=middle;" connectable="0" vertex="1" parent="26">
                    <mxGeometry relative="1" as="geometry">
                        <mxPoint y="22" as="offset"/>
                    </mxGeometry>
                </mxCell>
                <mxCell id="28" value="" style="endArrow=classic;html=1;exitX=0;exitY=0.5;exitDx=0;exitDy=0;" edge="1" parent="1" source="20">
                    <mxGeometry relative="1" as="geometry">
                        <mxPoint x="119.5" y="360" as="sourcePoint"/>
                        <mxPoint x="120" y="410" as="targetPoint"/>
                        <Array as="points">
                            <mxPoint x="120" y="335"/>
                        </Array>
                    </mxGeometry>
                </mxCell>
                <mxCell id="29" value="Sí" style="edgeLabel;resizable=0;html=1;align=center;verticalAlign=middle;" connectable="0" vertex="1" parent="28">
                    <mxGeometry relative="1" as="geometry">
                        <mxPoint x="30" y="-8" as="offset"/>
                    </mxGeometry>
                </mxCell>
                <mxCell id="30" value="" style="endArrow=classic;html=1;entryX=0.5;entryY=0;entryDx=0;entryDy=0;exitX=0.5;exitY=1;exitDx=0;exitDy=0;" edge="1" parent="1" source="3" target="20">
                    <mxGeometry width="50" height="50" relative="1" as="geometry">
                        <mxPoint x="390" y="220" as="sourcePoint"/>
                        <mxPoint x="440" y="170" as="targetPoint"/>
                    </mxGeometry>
                </mxCell>
                <mxCell id="31" value="Panel de proyectos" style="rounded=0;whiteSpace=wrap;html=1;" vertex="1" parent="1">
                    <mxGeometry x="294" y="410" width="120" height="60" as="geometry"/>
                </mxCell>
                <mxCell id="32" value="" style="endArrow=classic;html=1;exitX=1;exitY=0.5;exitDx=0;exitDy=0;entryX=0;entryY=0.5;entryDx=0;entryDy=0;" edge="1" parent="1" source="6" target="31">
                    <mxGeometry width="50" height="50" relative="1" as="geometry">
                        <mxPoint x="390" y="520" as="sourcePoint"/>
                        <mxPoint x="440" y="470" as="targetPoint"/>
                    </mxGeometry>
                </mxCell>
                <mxCell id="33" value="" style="endArrow=classic;html=1;entryX=0;entryY=0.5;entryDx=0;entryDy=0;" edge="1" parent="1" target="2">
                    <mxGeometry width="50" height="50" relative="1" as="geometry">
                        <mxPoint x="490" y="40" as="sourcePoint"/>
                        <mxPoint x="540" y="-10" as="targetPoint"/>
                    </mxGeometry>
                </mxCell>
            </root>
        </mxGraphModel>
    </diagram>
    <diagram id="VJffnENC-hP-rw10sFQ2" name="Flujo inicio">
        <mxGraphModel dx="1174" dy="790" grid="1" gridSize="10" guides="1" tooltips="1" connect="1" arrows="1" fold="1" page="1" pageScale="1" pageWidth="827" pageHeight="1169" math="0" shadow="0">
            <root>
                <mxCell id="7apI2crul1Oy_uuVkQKT-0"/>
                <mxCell id="7apI2crul1Oy_uuVkQKT-1" parent="7apI2crul1Oy_uuVkQKT-0"/>
                <mxCell id="0s7sUke5JU6CEGV_upHh-0" value="Más información" style="rounded=0;whiteSpace=wrap;html=1;" vertex="1" parent="7apI2crul1Oy_uuVkQKT-1">
                    <mxGeometry x="340" y="70" width="120" height="60" as="geometry"/>
                </mxCell>
                <mxCell id="0s7sUke5JU6CEGV_upHh-1" value="Registro" style="rounded=0;whiteSpace=wrap;html=1;" vertex="1" parent="7apI2crul1Oy_uuVkQKT-1">
                    <mxGeometry x="50" y="270" width="120" height="60" as="geometry"/>
                </mxCell>
                <mxCell id="0s7sUke5JU6CEGV_upHh-2" value="Iniciar Sesión" style="rounded=0;whiteSpace=wrap;html=1;" vertex="1" parent="7apI2crul1Oy_uuVkQKT-1">
                    <mxGeometry x="230" y="270" width="120" height="60" as="geometry"/>
                </mxCell>
                <mxCell id="0s7sUke5JU6CEGV_upHh-3" value="Inicio" style="rounded=0;whiteSpace=wrap;html=1;" vertex="1" parent="7apI2crul1Oy_uuVkQKT-1">
                    <mxGeometry x="140" y="70" width="120" height="60" as="geometry"/>
                </mxCell>
                <mxCell id="0s7sUke5JU6CEGV_upHh-4" value="¿Tiene cuenta?" style="ellipse;whiteSpace=wrap;html=1;" vertex="1" parent="7apI2crul1Oy_uuVkQKT-1">
                    <mxGeometry x="140" y="160" width="120" height="50" as="geometry"/>
                </mxCell>
                <mxCell id="SBD1OzEGZGuT4D7GHFWZ-0" value="" style="endArrow=classic;html=1;entryX=0.5;entryY=0;entryDx=0;entryDy=0;" edge="1" parent="7apI2crul1Oy_uuVkQKT-1" target="0s7sUke5JU6CEGV_upHh-2">
                    <mxGeometry relative="1" as="geometry">
                        <mxPoint x="189" y="230" as="sourcePoint"/>
                        <mxPoint x="350" y="270" as="targetPoint"/>
                        <Array as="points">
                            <mxPoint x="290" y="230"/>
                        </Array>
                    </mxGeometry>
                </mxCell>
                <mxCell id="SBD1OzEGZGuT4D7GHFWZ-1" value="Sí" style="edgeLabel;resizable=0;html=1;align=center;verticalAlign=middle;" connectable="0" vertex="1" parent="SBD1OzEGZGuT4D7GHFWZ-0">
                    <mxGeometry relative="1" as="geometry">
                        <mxPoint x="-10" as="offset"/>
                    </mxGeometry>
                </mxCell>
                <mxCell id="SBD1OzEGZGuT4D7GHFWZ-2" value="" style="endArrow=classic;html=1;entryX=0.5;entryY=0;entryDx=0;entryDy=0;" edge="1" parent="7apI2crul1Oy_uuVkQKT-1" target="0s7sUke5JU6CEGV_upHh-1">
                    <mxGeometry relative="1" as="geometry">
                        <mxPoint x="189" y="230" as="sourcePoint"/>
                        <mxPoint x="14" y="270" as="targetPoint"/>
                        <Array as="points">
                            <mxPoint x="110" y="230"/>
                        </Array>
                    </mxGeometry>
                </mxCell>
                <mxCell id="SBD1OzEGZGuT4D7GHFWZ-3" value="No" style="edgeLabel;resizable=0;html=1;align=center;verticalAlign=middle;" connectable="0" vertex="1" parent="SBD1OzEGZGuT4D7GHFWZ-2">
                    <mxGeometry relative="1" as="geometry">
                        <mxPoint x="38" as="offset"/>
                    </mxGeometry>
                </mxCell>
                <mxCell id="SBD1OzEGZGuT4D7GHFWZ-4" value="" style="endArrow=none;html=1;entryX=0.5;entryY=1;entryDx=0;entryDy=0;" edge="1" parent="7apI2crul1Oy_uuVkQKT-1">
                    <mxGeometry width="50" height="50" relative="1" as="geometry">
                        <mxPoint x="199" y="230" as="sourcePoint"/>
                        <mxPoint x="199" y="210" as="targetPoint"/>
                    </mxGeometry>
                </mxCell>
                <mxCell id="SBD1OzEGZGuT4D7GHFWZ-5" value="" style="endArrow=none;html=1;entryX=0.5;entryY=1;entryDx=0;entryDy=0;exitX=0.5;exitY=0;exitDx=0;exitDy=0;" edge="1" parent="7apI2crul1Oy_uuVkQKT-1">
                    <mxGeometry width="50" height="50" relative="1" as="geometry">
                        <mxPoint x="199" y="160" as="sourcePoint"/>
                        <mxPoint x="199" y="130" as="targetPoint"/>
                    </mxGeometry>
                </mxCell>
                <mxCell id="SBD1OzEGZGuT4D7GHFWZ-6" value="" style="endArrow=classic;html=1;entryX=0;entryY=0.5;entryDx=0;entryDy=0;" edge="1" parent="7apI2crul1Oy_uuVkQKT-1">
                    <mxGeometry width="50" height="50" relative="1" as="geometry">
                        <mxPoint x="259" y="100" as="sourcePoint"/>
                        <mxPoint x="339" y="100" as="targetPoint"/>
                    </mxGeometry>
                </mxCell>
                <mxCell id="SBD1OzEGZGuT4D7GHFWZ-8" value="Panel de proyectos" style="rounded=0;whiteSpace=wrap;html=1;" vertex="1" parent="7apI2crul1Oy_uuVkQKT-1">
                    <mxGeometry x="230" y="460" width="120" height="60" as="geometry"/>
                </mxCell>
                <mxCell id="SBD1OzEGZGuT4D7GHFWZ-9" value="¿Datos correctos?" style="ellipse;whiteSpace=wrap;html=1;" vertex="1" parent="7apI2crul1Oy_uuVkQKT-1">
                    <mxGeometry x="230" y="360" width="120" height="50" as="geometry"/>
                </mxCell>
                <mxCell id="SBD1OzEGZGuT4D7GHFWZ-10" value="" style="endArrow=classic;html=1;entryX=1;entryY=0.5;entryDx=0;entryDy=0;" edge="1" parent="7apI2crul1Oy_uuVkQKT-1" target="0s7sUke5JU6CEGV_upHh-2">
                    <mxGeometry relative="1" as="geometry">
                        <mxPoint x="350" y="384.5" as="sourcePoint"/>
                        <mxPoint x="440" y="320" as="targetPoint"/>
                        <Array as="points">
                            <mxPoint x="440" y="385"/>
                            <mxPoint x="440" y="300"/>
                        </Array>
                    </mxGeometry>
                </mxCell>
                <mxCell id="SBD1OzEGZGuT4D7GHFWZ-11" value="No" style="edgeLabel;resizable=0;html=1;align=center;verticalAlign=middle;" connectable="0" vertex="1" parent="SBD1OzEGZGuT4D7GHFWZ-10">
                    <mxGeometry relative="1" as="geometry"/>
                </mxCell>
                <mxCell id="SBD1OzEGZGuT4D7GHFWZ-12" value="" style="endArrow=classic;html=1;" edge="1" parent="7apI2crul1Oy_uuVkQKT-1">
                    <mxGeometry width="50" height="50" relative="1" as="geometry">
                        <mxPoint x="289.5" y="330" as="sourcePoint"/>
                        <mxPoint x="290" y="360" as="targetPoint"/>
                    </mxGeometry>
                </mxCell>
                <mxCell id="SBD1OzEGZGuT4D7GHFWZ-13" value="" style="endArrow=classic;html=1;entryX=0.5;entryY=0;entryDx=0;entryDy=0;exitX=0.5;exitY=1;exitDx=0;exitDy=0;" edge="1" parent="7apI2crul1Oy_uuVkQKT-1" source="SBD1OzEGZGuT4D7GHFWZ-9" target="SBD1OzEGZGuT4D7GHFWZ-8">
                    <mxGeometry relative="1" as="geometry">
                        <mxPoint x="280" y="420" as="sourcePoint"/>
                        <mxPoint x="380" y="420" as="targetPoint"/>
                    </mxGeometry>
                </mxCell>
                <mxCell id="SBD1OzEGZGuT4D7GHFWZ-14" value="Sí" style="edgeLabel;resizable=0;html=1;align=center;verticalAlign=middle;" connectable="0" vertex="1" parent="SBD1OzEGZGuT4D7GHFWZ-13">
                    <mxGeometry relative="1" as="geometry"/>
                </mxCell>
                <mxCell id="SBD1OzEGZGuT4D7GHFWZ-16" value="Agregar tarea" style="rounded=0;whiteSpace=wrap;html=1;" vertex="1" parent="7apI2crul1Oy_uuVkQKT-1">
                    <mxGeometry x="36.5" y="620" width="120" height="60" as="geometry"/>
                </mxCell>
                <mxCell id="SBD1OzEGZGuT4D7GHFWZ-17" value="Agregar proyecto" style="rounded=0;whiteSpace=wrap;html=1;" vertex="1" parent="7apI2crul1Oy_uuVkQKT-1">
                    <mxGeometry x="36.5" y="534.5" width="120" height="60" as="geometry"/>
                </mxCell>
                <mxCell id="SBD1OzEGZGuT4D7GHFWZ-18" value="Comenzar sesión de trabajo" style="rounded=0;whiteSpace=wrap;html=1;" vertex="1" parent="7apI2crul1Oy_uuVkQKT-1">
                    <mxGeometry x="40" y="710" width="120" height="60" as="geometry"/>
                </mxCell>
                <mxCell id="SBD1OzEGZGuT4D7GHFWZ-23" value="¿Cuenta de empresa?" style="ellipse;whiteSpace=wrap;html=1;" vertex="1" parent="7apI2crul1Oy_uuVkQKT-1">
                    <mxGeometry x="230" y="534.5" width="120" height="50" as="geometry"/>
                </mxCell>
                <mxCell id="SBD1OzEGZGuT4D7GHFWZ-24" value="¿Usuario admin?" style="ellipse;whiteSpace=wrap;html=1;" vertex="1" parent="7apI2crul1Oy_uuVkQKT-1">
                    <mxGeometry x="390" y="535" width="120" height="50" as="geometry"/>
                </mxCell>
                <mxCell id="SBD1OzEGZGuT4D7GHFWZ-25" value="Agregar tarea" style="rounded=0;whiteSpace=wrap;html=1;" vertex="1" parent="7apI2crul1Oy_uuVkQKT-1">
                    <mxGeometry x="633.5" y="530" width="120" height="60" as="geometry"/>
                </mxCell>
                <mxCell id="SBD1OzEGZGuT4D7GHFWZ-26" value="Agregar proyecto" style="rounded=0;whiteSpace=wrap;html=1;" vertex="1" parent="7apI2crul1Oy_uuVkQKT-1">
                    <mxGeometry x="633.5" y="442.25" width="120" height="60" as="geometry"/>
                </mxCell>
                <mxCell id="SBD1OzEGZGuT4D7GHFWZ-27" value="Comenzar sesión de trabajo" style="rounded=0;whiteSpace=wrap;html=1;" vertex="1" parent="7apI2crul1Oy_uuVkQKT-1">
                    <mxGeometry x="633.5" y="617.75" width="120" height="60" as="geometry"/>
                </mxCell>
                <mxCell id="SBD1OzEGZGuT4D7GHFWZ-28" value="Comenzar sesión de trabajo" style="rounded=0;whiteSpace=wrap;html=1;" vertex="1" parent="7apI2crul1Oy_uuVkQKT-1">
                    <mxGeometry x="320" y="820" width="120" height="60" as="geometry"/>
                </mxCell>
                <mxCell id="SBD1OzEGZGuT4D7GHFWZ-29" value="" style="endArrow=classic;html=1;entryX=0.5;entryY=0;entryDx=0;entryDy=0;" edge="1" parent="7apI2crul1Oy_uuVkQKT-1" target="SBD1OzEGZGuT4D7GHFWZ-28">
                    <mxGeometry relative="1" as="geometry">
                        <mxPoint x="446" y="585" as="sourcePoint"/>
                        <mxPoint x="381" y="730" as="targetPoint"/>
                        <Array as="points">
                            <mxPoint x="446" y="680"/>
                            <mxPoint x="381" y="680"/>
                        </Array>
                    </mxGeometry>
                </mxCell>
                <mxCell id="SBD1OzEGZGuT4D7GHFWZ-30" value="No" style="edgeLabel;resizable=0;html=1;align=center;verticalAlign=middle;" connectable="0" vertex="1" parent="SBD1OzEGZGuT4D7GHFWZ-29">
                    <mxGeometry relative="1" as="geometry">
                        <mxPoint x="53" y="-50" as="offset"/>
                    </mxGeometry>
                </mxCell>
                <mxCell id="SBD1OzEGZGuT4D7GHFWZ-31" value="Reporte empresa" style="rounded=0;whiteSpace=wrap;html=1;" vertex="1" parent="7apI2crul1Oy_uuVkQKT-1">
                    <mxGeometry x="633.5" y="720" width="120" height="60" as="geometry"/>
                </mxCell>
                <mxCell id="SBD1OzEGZGuT4D7GHFWZ-32" value="Reporte personal" style="rounded=0;whiteSpace=wrap;html=1;" vertex="1" parent="7apI2crul1Oy_uuVkQKT-1">
                    <mxGeometry x="40" y="810" width="120" height="60" as="geometry"/>
                </mxCell>
                <mxCell id="SBD1OzEGZGuT4D7GHFWZ-33" value="" style="endArrow=classic;html=1;" edge="1" parent="7apI2crul1Oy_uuVkQKT-1">
                    <mxGeometry relative="1" as="geometry">
                        <mxPoint x="350" y="559" as="sourcePoint"/>
                        <mxPoint x="390" y="559" as="targetPoint"/>
                    </mxGeometry>
                </mxCell>
                <mxCell id="SBD1OzEGZGuT4D7GHFWZ-34" value="Sí" style="edgeLabel;resizable=0;html=1;align=center;verticalAlign=middle;" connectable="0" vertex="1" parent="SBD1OzEGZGuT4D7GHFWZ-33">
                    <mxGeometry relative="1" as="geometry"/>
                </mxCell>
                <mxCell id="SBD1OzEGZGuT4D7GHFWZ-35" value="" style="endArrow=classic;html=1;" edge="1" parent="7apI2crul1Oy_uuVkQKT-1">
                    <mxGeometry relative="1" as="geometry">
                        <mxPoint x="226.5" y="559.5" as="sourcePoint"/>
                        <mxPoint x="156.5" y="560" as="targetPoint"/>
                    </mxGeometry>
                </mxCell>
                <mxCell id="SBD1OzEGZGuT4D7GHFWZ-36" value="No" style="edgeLabel;resizable=0;html=1;align=center;verticalAlign=middle;" connectable="0" vertex="1" parent="SBD1OzEGZGuT4D7GHFWZ-35">
                    <mxGeometry relative="1" as="geometry"/>
                </mxCell>
                <mxCell id="SBD1OzEGZGuT4D7GHFWZ-37" value="" style="endArrow=classic;html=1;entryX=1;entryY=0.5;entryDx=0;entryDy=0;" edge="1" parent="7apI2crul1Oy_uuVkQKT-1" target="SBD1OzEGZGuT4D7GHFWZ-16">
                    <mxGeometry width="50" height="50" relative="1" as="geometry">
                        <mxPoint x="190" y="570" as="sourcePoint"/>
                        <mxPoint x="270" y="600" as="targetPoint"/>
                        <Array as="points">
                            <mxPoint x="190" y="650"/>
                        </Array>
                    </mxGeometry>
                </mxCell>
                <mxCell id="SBD1OzEGZGuT4D7GHFWZ-38" value="" style="endArrow=classic;html=1;entryX=1;entryY=0.5;entryDx=0;entryDy=0;" edge="1" parent="7apI2crul1Oy_uuVkQKT-1" target="SBD1OzEGZGuT4D7GHFWZ-18">
                    <mxGeometry width="50" height="50" relative="1" as="geometry">
                        <mxPoint x="190" y="640" as="sourcePoint"/>
                        <mxPoint x="440" y="570" as="targetPoint"/>
                        <Array as="points">
                            <mxPoint x="190" y="740"/>
                        </Array>
                    </mxGeometry>
                </mxCell>
                <mxCell id="SBD1OzEGZGuT4D7GHFWZ-39" value="" style="endArrow=classic;html=1;entryX=1;entryY=0.5;entryDx=0;entryDy=0;" edge="1" parent="7apI2crul1Oy_uuVkQKT-1" target="SBD1OzEGZGuT4D7GHFWZ-32">
                    <mxGeometry width="50" height="50" relative="1" as="geometry">
                        <mxPoint x="190" y="720" as="sourcePoint"/>
                        <mxPoint x="440" y="570" as="targetPoint"/>
                        <Array as="points">
                            <mxPoint x="190" y="840"/>
                        </Array>
                    </mxGeometry>
                </mxCell>
                <mxCell id="SBD1OzEGZGuT4D7GHFWZ-40" value="Reporte personal" style="rounded=0;whiteSpace=wrap;html=1;" vertex="1" parent="7apI2crul1Oy_uuVkQKT-1">
                    <mxGeometry x="450" y="820" width="120" height="60" as="geometry"/>
                </mxCell>
                <mxCell id="SBD1OzEGZGuT4D7GHFWZ-41" value="" style="endArrow=classic;html=1;entryX=0.5;entryY=0;entryDx=0;entryDy=0;" edge="1" parent="7apI2crul1Oy_uuVkQKT-1" target="SBD1OzEGZGuT4D7GHFWZ-40">
                    <mxGeometry width="50" height="50" relative="1" as="geometry">
                        <mxPoint x="446" y="640" as="sourcePoint"/>
                        <mxPoint x="511" y="730" as="targetPoint"/>
                        <Array as="points">
                            <mxPoint x="446" y="680"/>
                            <mxPoint x="511" y="680"/>
                        </Array>
                    </mxGeometry>
                </mxCell>
                <mxCell id="SBD1OzEGZGuT4D7GHFWZ-42" value="" style="endArrow=classic;html=1;entryX=0;entryY=0.5;entryDx=0;entryDy=0;" edge="1" parent="7apI2crul1Oy_uuVkQKT-1" target="SBD1OzEGZGuT4D7GHFWZ-25">
                    <mxGeometry relative="1" as="geometry">
                        <mxPoint x="510" y="559" as="sourcePoint"/>
                        <mxPoint x="610" y="559" as="targetPoint"/>
                    </mxGeometry>
                </mxCell>
                <mxCell id="SBD1OzEGZGuT4D7GHFWZ-43" value="Sí" style="edgeLabel;resizable=0;html=1;align=center;verticalAlign=middle;" connectable="0" vertex="1" parent="SBD1OzEGZGuT4D7GHFWZ-42">
                    <mxGeometry relative="1" as="geometry"/>
                </mxCell>
                <mxCell id="SBD1OzEGZGuT4D7GHFWZ-44" value="" style="endArrow=classic;html=1;entryX=0;entryY=0.5;entryDx=0;entryDy=0;" edge="1" parent="7apI2crul1Oy_uuVkQKT-1" target="SBD1OzEGZGuT4D7GHFWZ-26">
                    <mxGeometry width="50" height="50" relative="1" as="geometry">
                        <mxPoint x="590" y="560" as="sourcePoint"/>
                        <mxPoint x="640" y="510" as="targetPoint"/>
                        <Array as="points">
                            <mxPoint x="590" y="472"/>
                        </Array>
                    </mxGeometry>
                </mxCell>
                <mxCell id="SBD1OzEGZGuT4D7GHFWZ-45" value="" style="endArrow=classic;html=1;entryX=0;entryY=0.5;entryDx=0;entryDy=0;" edge="1" parent="7apI2crul1Oy_uuVkQKT-1" target="SBD1OzEGZGuT4D7GHFWZ-27">
                    <mxGeometry width="50" height="50" relative="1" as="geometry">
                        <mxPoint x="590" y="560" as="sourcePoint"/>
                        <mxPoint x="440" y="570" as="targetPoint"/>
                        <Array as="points">
                            <mxPoint x="590" y="648"/>
                        </Array>
                    </mxGeometry>
                </mxCell>
                <mxCell id="SBD1OzEGZGuT4D7GHFWZ-46" value="" style="endArrow=classic;html=1;entryX=0;entryY=0.5;entryDx=0;entryDy=0;" edge="1" parent="7apI2crul1Oy_uuVkQKT-1" target="SBD1OzEGZGuT4D7GHFWZ-31">
                    <mxGeometry width="50" height="50" relative="1" as="geometry">
                        <mxPoint x="590" y="560" as="sourcePoint"/>
                        <mxPoint x="440" y="570" as="targetPoint"/>
                        <Array as="points">
                            <mxPoint x="590" y="750"/>
                        </Array>
                    </mxGeometry>
                </mxCell>
                <mxCell id="SBD1OzEGZGuT4D7GHFWZ-47" value="Cerrar sesión" style="rounded=1;whiteSpace=wrap;html=1;" vertex="1" parent="7apI2crul1Oy_uuVkQKT-1">
                    <mxGeometry x="140" y="1020" width="560" height="60" as="geometry"/>
                </mxCell>
                <mxCell id="SBD1OzEGZGuT4D7GHFWZ-48" value="" style="endArrow=classic;html=1;entryX=0.5;entryY=0;entryDx=0;entryDy=0;dashed=1;" edge="1" parent="7apI2crul1Oy_uuVkQKT-1" target="SBD1OzEGZGuT4D7GHFWZ-47">
                    <mxGeometry width="50" height="50" relative="1" as="geometry">
                        <mxPoint x="190" y="580" as="sourcePoint"/>
                        <mxPoint x="440" y="770" as="targetPoint"/>
                        <Array as="points">
                            <mxPoint x="190" y="950"/>
                            <mxPoint x="420" y="950"/>
                        </Array>
                    </mxGeometry>
                </mxCell>
                <mxCell id="SBD1OzEGZGuT4D7GHFWZ-49" value="" style="endArrow=classic;html=1;entryX=0.5;entryY=0;entryDx=0;entryDy=0;dashed=1;" edge="1" parent="7apI2crul1Oy_uuVkQKT-1" target="SBD1OzEGZGuT4D7GHFWZ-47">
                    <mxGeometry width="50" height="50" relative="1" as="geometry">
                        <mxPoint x="460" y="680" as="sourcePoint"/>
                        <mxPoint x="470" y="730" as="targetPoint"/>
                        <Array as="points">
                            <mxPoint x="270" y="680"/>
                            <mxPoint x="270" y="910"/>
                            <mxPoint x="420" y="910"/>
                        </Array>
                    </mxGeometry>
                </mxCell>
                <mxCell id="SBD1OzEGZGuT4D7GHFWZ-50" value="" style="endArrow=classic;html=1;entryX=0.5;entryY=0;entryDx=0;entryDy=0;dashed=1;" edge="1" parent="7apI2crul1Oy_uuVkQKT-1" target="SBD1OzEGZGuT4D7GHFWZ-47">
                    <mxGeometry width="50" height="50" relative="1" as="geometry">
                        <mxPoint x="590" y="560" as="sourcePoint"/>
                        <mxPoint x="740" y="830" as="targetPoint"/>
                        <Array as="points">
                            <mxPoint x="590" y="960"/>
                            <mxPoint x="420" y="960"/>
                        </Array>
                    </mxGeometry>
                </mxCell>
                <mxCell id="SBD1OzEGZGuT4D7GHFWZ-51" value="" style="endArrow=classic;html=1;exitX=0;exitY=0.5;exitDx=0;exitDy=0;entryX=0;entryY=0.5;entryDx=0;entryDy=0;dashed=1;" edge="1" parent="7apI2crul1Oy_uuVkQKT-1" source="SBD1OzEGZGuT4D7GHFWZ-47" target="0s7sUke5JU6CEGV_upHh-3">
                    <mxGeometry width="50" height="50" relative="1" as="geometry">
                        <mxPoint x="90" y="1050" as="sourcePoint"/>
                        <mxPoint x="80" y="400" as="targetPoint"/>
                        <Array as="points">
                            <mxPoint x="20" y="1050"/>
                            <mxPoint x="20" y="100"/>
                        </Array>
                    </mxGeometry>
                </mxCell>
            </root>
        </mxGraphModel>
    </diagram>
    <diagram id="OPniNiq9Ay_L6r5O98CQ" name="Page-3">
        <mxGraphModel dx="1174" dy="790" grid="1" gridSize="10" guides="1" tooltips="1" connect="1" arrows="1" fold="1" page="1" pageScale="1" pageWidth="827" pageHeight="1169" math="0" shadow="0">
            <root>
                <mxCell id="hSThjyGEiX5VOvuCAGIz-0"/>
                <mxCell id="hSThjyGEiX5VOvuCAGIz-1" parent="hSThjyGEiX5VOvuCAGIz-0"/>
            </root>
        </mxGraphModel>
    </diagram>
</mxfile>